<svg version="1.2" xmlns="http://www.w3.org/2000/svg" viewBox="0 0 723 314" width="723" height="314">
	<title>safir__logo-svg</title>
	<style>
		.s0 { fill: #144a8d } 
		.s1 { fill: #ffffff } 
		.s2 { fill: #ed2024 } 
	</style>
	<g id="Layer">
		<path id="Layer" class="s0" d="m147.6 141.1c0.2-0.3-2.4-2.5-2.7-2.7q-3.6-3.5-7.5-6.7c-7.6-6.3-16.1-11.9-25.3-15.6c-17.8-7.1-46.3-4.8-53.3 16.4c-5.9 18.1 8.9 29.9 23.8 36.4c19.3 8.3 39.9 11.3 57.2 24.4c20.1 15.2 27.8 39.4 22.1 63.6c-1.6 6.6-4 13.1-7.2 19.1c-7.2 13.2-18.7 23.6-32.4 29.8c-20.5 9.5-43.9 10.5-66 7c-8.9-1.3-17.8-3.4-26.4-6.1q-7.9-2.5-15.5-5.5c-1.5-0.6-16.3-6.5-16.1-7.2c0 0 11.7-44.3 11.7-44.3c-0.3 1.4 6.8 7.5 7.7 8.4c6.2 6.2 13.1 11.8 20.7 16.3c9 5.3 19.6 9.6 30.2 10c12.3 0.5 24.7-3.3 34.6-10.7c5.3-3.9 9.3-9.2 10.9-15.7c2.5-10.5-3.8-20.5-12.7-25.8c-5.7-3.3-12.1-5.3-18.2-8c-16.9-7.4-35.6-11.7-51.1-22.1c-19-12.7-30.6-34.8-28.4-57.8c2.1-22 16.8-39.8 36-49.8c20.5-10.6 43.3-11.9 65.9-9.7c8.7 0.9 17.3 2.3 25.9 4.2c2.8 0.6 30.9 7.9 30.7 8.7c-0.1 0-14.6 43.4-14.6 43.4z" />
		<path id="Layer" fill-rule="evenodd" class="s0" d="m364.1 289.8c0 5.3 0 20.7 0 20.7l-32.6 0.5c-20.8 0.5-29.3-25.3-29.4-25.7c0.5 1.8-8 8-9.3 9c-3.8 3-7.9 5.7-12.2 8c-8.4 4.5-17.5 7.7-26.9 9.3c-23.1 4-49.6-0.8-66.8-17.8c-12.5-12.4-16.6-30.3-15.1-47.5c2-22.6 13.4-43.6 32.2-56.6c9.5-6.7 19.8-10.3 30.7-13.8c12.4-4.1 25.7-4.5 38.4-7.6c11-2.6 23.1-7.6 26.8-19.4c3.9-12.3-2-25-13.3-30.8c-14.5-7.4-33.5-5.6-48.1 0.5q-1.9 0.8-3.7 1.6c-2 0.8-4.2 2-6.5 3.5q-0.1 0-0.2 0.1c-9.6 6.1-20.5 16.3-20.5 16.3l0.1-0.4q-0.1 0.3-0.1 0.4c0-0.1-13.8-38-13.8-38c-0.2-0.5 9.9-5 10.9-5.5c25.2-11.1 53.7-14.7 81.1-14.2c25.7 0.4 54.4 11.8 61.9 38.8c2.5 9 2.1 17.8 2 27c-0.4 39.6-0.1 79.4-0.6 119.1c0 2.7-0.3 6.1 0 9.3c0.2 4.4 1.3 8.6 4.5 11q0 0 0.1 0c0.1 0.1 0.5 0.5 1.4 0.9q0.3 0.1 0.6 0.2c1.6 0.7 4.3 1.3 8.4 1.1zm-156.5-149.7q0 0 0 0q0 0 0 0zm94.5 145.2q0 0 0 0q0 0 0 0zm-1.5-99.3c-3.3 1.7-7.3 2.8-8 3q0 0 0 0c-16.6 5.2-35 9-49.2 19.1c-18.3 13-32.1 46.3-10.5 63.5c9.8 7.6 23.6 8.5 35.1 4.8c19.2-6.2 32-25 32.6-44.9v-0.2c0.4-15.1 0.4-30.3 0-45.3z" />
		<path id="Layer" class="s0" d="m451.8 53.5c-0.1 1.8-0.2 3.7-0.1 5.5c0 2 0.1 23.1 0.1 23.1h47.2v31.2h-47.2v196.9h-53.8v-196.9h-34.6v-31.2h34.6v-28.6c0.6-9 2.6-16.4 5.5-22.6c10.5-22.1 35.4-30.3 58.2-31.4c15.5-0.7 31.2 1.4 46.3 5q1.7 0.4 3.5 0.9c0.6 0.2 12.8 3.7 12.7 3.9l-16 33.1c-23.7-15.5-37-13-37-13c-6.5 0.6-12.2 3.9-15.6 9.6c-2.5 4.4-3.5 9.4-3.8 14.5z" />
		<path id="Layer" class="s0" d="m576.3 134.2v176.1h-54.2v-200.6c0 0 36.4-2.1 54.2 24.5z" />
		<path id="Layer" class="s0" d="m659 99.8c0 0 15.9-23.1 64.7-18.6v36.6q-6.9 0-13.8 0q-4 0-8 0c-4.1 0-8.1 0.1-12.1 0.9q-3.6 0.8-7.1 2.1c-5.7 2-11.3 5-15.4 9.5c-2.4 2.5-4.2 5.4-5.4 8.6v171.4h-52.8v-228.2h49.9z" />
		<path id="Layer" class="s1" d="m528 93.6l5.7-18.2l4.1-13l-11.2-7.8l-5.5-8.8l2.1-8.9l10.5-6.2l10.3 0.2l4 0.6l14.9-6.6l16.4 0.6l15.6 11.3l3.8 8l11.1 1.6l9.9 3.6l1.5 12l-11.3 11.9l-16.5 1.5l-15.7 41.2z" />
		<path id="Layer" fill-rule="evenodd" class="s2" d="m625.7 59.4c-0.4 5.8-4.2 11-9 14c-6.1 3.9-13.6 4.9-20.8 4.5c-8.8 13.9-13.9 30.1-14.6 46.5c-9.1-7.9-19.2-15.3-30.5-19.9c-8.1-3.2-17.3-5.5-26-4.8q-2 0.1-4 0.4l11.1-29.8l2.2-6.1c-2.4-0.3-5.4-1.6-5.8-1.7q0 0 0-0.1q0 0 0 0c-2.9-1.1-5.5-3-7.5-5.4c-3.5-4.2-5.5-10.1-5.3-15.6c0.3-5.6 3.2-10.7 8.7-12.7c5.3-2 12.3-2.1 18-1.5c0.3 0 4.4 0.4 4.4 1.1c0-0.1 1.8-1.9 1.9-2c6.5-5.9 15.7-7.5 24.2-5.9c10.9 2.2 22.3 8.4 28.9 17.5q1.1 1.5 1.9 3.1c0.3 0.5 5.5 0.7 6.3 0.9c5.1 1 10 3.4 12.9 7.3c2.1 2.7 3.3 6.1 3 10.2zm-8.3-5.3c-2.9-7-12.1-9.9-18-4.8c-1.4 1.2-2.6 2.8-3.6 4.5c0 0 0.4-23.4-24.9-26.7c0 0-22.9-1.8-25.2 20.8c0 0-6.7-4.4-5-14.6c0 0-16.4-1.3-15.4 12.6c0 0 1.9 9.4 16.4 13.5c0 0 7.2 2.6 13 3.3c0 0-5.8 1.6-12.9 1.7l-4 11c-0.6 1.6-1.2 3.2-1.8 4.8q-1 2.9-2 5.8q-1.3 3.8-2.6 7.7c15.9 0.8 31.5 6.3 44.3 15.7c-1.7-4.8-5-9.1-9.4-11.9c4-0.6 8.3 0.4 11.5 2.7c3.4-7.7 6.7-15.4 10-23c-10.1-1.2-14.3-9.3-14.3-9.3c6.5 1.9 13.2 3.4 19.9 4c7.7 0.7 17.6 0.7 22.6-6.2c2.4-3.3 3-7.9 1.4-11.6z" />
	</g>
</svg>