<?xml version="1.0" encoding="utf-8"?>
<!-- Generator: Adobe Illustrator 25.3.1, SVG Export Plug-In . SVG Version: 6.00 Build 0)  -->
<svg version="1.1" id="Layer_1" xmlns="http://www.w3.org/2000/svg" xmlns:xlink="http://www.w3.org/1999/xlink" x="0px" y="0px"
	 viewBox="0 0 1080 1080" style="enable-background:new 0 0 1080 1080;" xml:space="preserve">
<style type="text/css">
	.st0{fill:#144A8D;}
	.st1{fill:#FFFFFF;}
	.st2{fill:#ED2024;}
</style>
<g>
	<path class="st0" d="M326.64,524.09c0.11-0.33-2.46-2.5-2.7-2.73c-2.41-2.33-4.92-4.56-7.51-6.69
		c-7.66-6.29-16.1-11.83-25.32-15.54c-17.77-7.14-46.32-4.8-53.3,16.42c-5.93,18.04,8.84,29.9,23.76,36.33
		c19.36,8.35,39.92,11.32,57.26,24.45c20.06,15.19,27.75,39.33,22.05,63.59c-1.56,6.62-3.97,13.05-7.22,19.03
		c-7.18,13.2-18.69,23.61-32.31,29.88c-20.56,9.46-43.96,10.42-66.04,7c-8.95-1.38-17.79-3.48-26.44-6.16
		c-5.21-1.62-10.36-3.45-15.43-5.48c-1.5-0.6-16.37-6.48-16.16-7.24c0,0,11.77-44.27,11.77-44.28c-0.37,1.39,6.75,7.54,7.61,8.4
		c6.25,6.2,13.19,11.78,20.77,16.28c9.02,5.36,19.56,9.66,30.16,10.09c12.3,0.5,24.74-3.35,34.62-10.7
		c5.26-3.92,9.32-9.25,10.85-15.71c2.5-10.56-3.73-20.53-12.7-25.8c-5.71-3.36-12.09-5.36-18.14-8
		c-16.95-7.39-35.63-11.73-51.14-22.11c-18.96-12.68-30.54-34.87-28.38-57.8c2.07-21.98,16.84-39.82,36-49.79
		c20.5-10.67,43.34-11.98,65.91-9.71c8.7,0.87,17.34,2.28,25.87,4.14c2.78,0.61,30.95,7.97,30.7,8.71
		C341.15,480.66,326.65,524.07,326.64,524.09z"/>
	<path class="st0" d="M534.67,671.74c-0.2-0.09-0.38-0.16-0.56-0.24c-0.88-0.4-1.33-0.77-1.44-0.87c-0.01-0.01-0.03-0.03-0.03-0.03
		c-3.26-2.41-4.3-6.64-4.58-11c-0.21-3.25,0-6.59,0.03-9.29c0.48-39.7,0.2-79.48,0.63-119.14c0.1-9.21,0.44-17.99-2.04-26.98
		c-7.44-26.97-36.18-38.39-61.88-38.8c-27.43-0.46-55.86,3.14-81.12,14.25c-0.97,0.43-11.09,4.96-10.9,5.46
		c0,0,13.83,38.02,13.83,38.03c-0.03-0.1,0-0.23,0.09-0.4l-0.09,0.4c0,0,10.93-10.25,20.53-16.36c0.06-0.03,0.11-0.07,0.17-0.1
		c2.29-1.45,4.52-2.67,6.49-3.44c1.21-0.58,2.45-1.13,3.69-1.64c14.6-6.04,33.58-7.84,48.09-0.47
		c11.33,5.77,17.23,18.52,13.33,30.82c-3.73,11.77-15.77,16.78-26.81,19.41c-12.71,3.02-25.99,3.42-38.44,7.51
		c-10.89,3.58-21.14,7.16-30.7,13.81c-18.72,13.01-30.18,34.05-32.16,56.66c-1.5,17.15,2.59,35.07,15.12,47.5
		c17.15,16.99,43.68,21.77,66.81,17.8c9.39-1.61,18.5-4.79,26.88-9.32c4.29-2.34,8.4-5.03,12.23-8.05c1.28-1.01,9.81-7.14,9.22-8.92
		c0,0,8.55,26.2,29.48,25.66l32.57-0.54c0,0,0-13.66,0-19v-1.7C538.96,672.99,536.27,672.38,534.67,671.74z M479.61,614.31v0.16
		c-0.57,19.93-13.36,38.77-32.63,44.92c-11.49,3.68-25.32,2.85-35.04-4.83c-21.61-17.12-7.8-50.43,10.51-63.46
		c14.2-10.11,32.53-13.94,49.12-19.12l0.01-0.01c0.01,0,0.04,0,0.07-0.01c0.61-0.16,4.63-1.28,7.97-2.98
		C480.03,584.04,480.01,599.24,479.61,614.31z"/>
	<path class="st0" d="M630.77,436.52c-0.11,1.83-0.12,3.66-0.09,5.46c0.04,2.05,0.17,23.15,0.13,23.15c0,0,47.2,0,47.2,0v31.17
		h-47.2v196.95h-53.85V496.31h-34.52v-31.17h34.52V436.5c0.61-8.98,2.61-16.45,5.56-22.65c10.49-22.03,35.37-30.24,58.14-31.34
		c15.57-0.75,31.2,1.42,46.32,5.01c1.17,0.28,2.33,0.57,3.49,0.87c0.68,0.18,12.82,3.74,12.76,3.89c0,0-16.01,33.11-16.01,33.11
		c-23.72-15.47-37.02-13.03-37.02-13.03c-6.53,0.61-12.24,3.89-15.57,9.6C632.07,426.37,631.07,431.44,630.77,436.52z"/>
	<path class="st0" d="M755.29,517.18v176.08h-54.22V492.73C701.06,492.73,737.51,490.61,755.29,517.18z"/>
	<path class="st0" d="M837.96,482.84c0,0,15.89-23.17,64.78-18.68c0,0,0,36.64,0,36.64c-4.62,0-9.24,0-13.86,0
		c-2.66,0-5.32,0-7.97,0c-4.11,0-8.12,0.06-12.15,0.94c-2.4,0.52-4.77,1.19-7.09,2.02c-5.71,2.03-11.23,5.05-15.4,9.51
		c-2.34,2.5-4.2,5.43-5.4,8.64v171.36h-52.74V465.13h49.83V482.84z"/>
	<polygon class="st1" points="706.97,476.56 712.73,458.38 716.81,445.37 705.61,437.64 700.12,428.83 702.21,419.85 712.75,413.69 
		723.02,413.87 726.98,414.54 741.92,407.87 758.29,408.47 773.86,419.75 777.73,427.76 788.83,429.42 798.66,433.04 800.22,444.98 
		788.86,456.89 772.36,458.45 756.7,499.59 	"/>
	<path class="st2" d="M801.72,432.16c-2.96-3.82-7.78-6.25-12.93-7.31c-0.8-0.16-5.98-0.39-6.25-0.89
		c-0.59-1.05-1.24-2.06-1.94-3.04c-6.56-9.11-17.99-15.34-28.91-17.48c-8.46-1.64-17.65-0.09-24.15,5.84
		c-0.11,0.1-1.95,1.92-1.95,2.05c-0.02-0.73-4.08-1.13-4.43-1.17c-5.66-0.6-12.66-0.44-18,1.56c-5.45,2.02-8.4,7.04-8.63,12.7
		c-0.24,5.53,1.75,11.35,5.28,15.62c1.97,2.38,4.59,4.26,7.47,5.41c0,0,0,0,0.01,0c0.01,0.01,0.01,0.01,0.03,0.01
		c0.36,0.16,3.33,1.41,5.78,1.76l-2.22,6.08l-11.12,29.82c1.34-0.19,2.69-0.33,4.04-0.43c8.73-0.64,17.92,1.57,25.99,4.82
		c11.31,4.55,21.41,11.98,30.55,19.94c0.69-16.41,5.75-32.62,14.53-46.51c7.22,0.35,14.78-0.62,20.86-4.52
		c4.77-3.06,8.57-8.24,9-14.01C805.02,438.29,803.84,434.87,801.72,432.16z M795.05,448.69c-5.04,6.96-14.91,6.89-22.6,6.22
		c-6.79-0.59-13.48-2.07-19.99-4.05c0,0,4.27,8.16,14.39,9.29c-3.34,7.69-6.66,15.36-10,23.06c-3.29-2.35-7.5-3.36-11.51-2.76
		c4.33,2.83,7.68,7.12,9.38,11.99c-12.84-9.4-28.46-14.95-44.35-15.76c0.89-2.57,1.79-5.15,2.68-7.72c0.67-1.92,1.32-3.83,1.99-5.73
		c0.56-1.63,1.18-3.26,1.73-4.88l4.02-10.92c7.15-0.11,12.94-1.71,12.94-1.71c-5.85-0.7-12.98-3.35-12.98-3.35
		c-14.55-4.09-16.45-13.46-16.45-13.46c-0.99-13.89,15.44-12.59,15.44-12.59c-1.75,10.15,4.99,14.56,4.99,14.56
		c2.28-22.6,25.15-20.75,25.15-20.75c25.34,3.22,24.95,26.63,24.95,26.63c0.97-1.67,2.14-3.25,3.61-4.51
		c5.82-5.04,15.05-2.12,17.96,4.82C797.98,440.82,797.44,445.39,795.05,448.69z"/>
</g>
</svg>
